<svg width="30" height="20" viewBox="0 0 30 20" fill="none" xmlns="http://www.w3.org/2000/svg">
<path d="M29.8188 9.23958C26.9943 3.72865 21.4026 0 15 0C8.5974 0 3.00417 3.73125 0.181252 9.2401C0.0621072 9.47579 3.05176e-05 9.73617 3.05176e-05 10.0003C3.05176e-05 10.2643 0.0621072 10.5247 0.181252 10.7604C3.00573 16.2714 8.5974 20 15 20C21.4026 20 26.9958 16.2687 29.8188 10.7599C29.9379 10.5242 30 10.2638 30 9.99974C30 9.73565 29.9379 9.47526 29.8188 9.23958ZM15 17.5C13.5166 17.5 12.0666 17.0601 10.8332 16.236C9.59986 15.4119 8.63856 14.2406 8.07091 12.8701C7.50325 11.4997 7.35472 9.99168 7.64411 8.53682C7.9335 7.08196 8.64781 5.74559 9.6967 4.6967C10.7456 3.6478 12.082 2.9335 13.5368 2.64411C14.9917 2.35472 16.4997 2.50325 17.8701 3.0709C19.2406 3.63856 20.4119 4.59985 21.236 5.83322C22.0601 7.06659 22.5 8.51664 22.5 10C22.5005 10.985 22.3068 11.9605 21.9301 12.8707C21.5533 13.7809 21.0009 14.6078 20.3044 15.3044C19.6078 16.0009 18.7809 16.5533 17.8707 16.9301C16.9605 17.3068 15.9851 17.5005 15 17.5ZM15 5C14.5537 5.00624 14.1103 5.07263 13.6818 5.1974C14.035 5.67743 14.2045 6.26817 14.1596 6.86247C14.1146 7.45677 13.8582 8.01528 13.4367 8.43672C13.0153 8.85815 12.4568 9.1146 11.8625 9.15956C11.2682 9.20452 10.6774 9.03501 10.1974 8.68177C9.92405 9.68885 9.97339 10.7563 10.3385 11.7339C10.7036 12.7114 11.366 13.5499 12.2326 14.1312C13.0992 14.7126 14.1263 15.0075 15.1693 14.9746C16.2123 14.9416 17.2187 14.5824 18.0468 13.9476C18.875 13.3127 19.4832 12.4341 19.7858 11.4354C20.0885 10.4368 20.0704 9.36832 19.734 8.38051C19.3976 7.39269 18.76 6.53523 17.9107 5.92881C17.0615 5.32239 16.0435 4.99754 15 5Z" fill="#020050"/>
</svg>
