<svg width="30" height="30" viewBox="0 0 30 30" fill="none" xmlns="http://www.w3.org/2000/svg">
<path d="M19.5 20H21.75C22.125 20 22.5 19.5 22.5 19V8.5C22.5 8 22.125 7.5 21.75 7.5H19.5C19.125 7.5 18.75 8 18.75 8.5V19C18.75 19.5 19.125 20 19.5 20ZM25.125 20H27.375C27.75 20 28.125 19.5 28.125 19V1C28.125 0.5 27.75 0 27.375 0H25.125C24.75 0 24.375 0.5 24.375 1V19C24.375 19.5 24.75 20 25.125 20ZM8.25 20H10.5C10.875 20 11.25 19.5 11.25 19V13.5C11.25 13 10.875 12.5 10.5 12.5H8.25C7.875 12.5 7.5 13 7.5 13.5V19C7.5 19.5 7.875 20 8.25 20ZM13.875 20H16.125C16.5 20 16.875 19.5 16.875 19V3.5C16.875 3 16.5 2.5 16.125 2.5H13.875C13.5 2.5 13.125 3 13.125 3.5V19C13.125 19.5 13.5 20 13.875 20ZM29.0625 25H3.75V1.25C3.75 0.559375 3.33047 0 2.8125 0H0.9375C0.419531 0 0 0.559375 0 1.25V27.5C0 28.8805 0.839648 30 1.875 30H29.0625C29.5805 30 30 29.4406 30 28.75V26.25C30 25.5594 29.5805 25 29.0625 25Z" fill="#020050"/>
</svg>
